<?xml version="1.0" standalone="no"?>
<!DOCTYPE svg PUBLIC "-//W3C//DTD SVG 20010904//EN"
 "http://www.w3.org/TR/2001/REC-SVG-20010904/DTD/svg10.dtd">
<svg version="1.0" xmlns="http://www.w3.org/2000/svg"
 width="96.000000pt" height="96.000000pt" viewBox="0 0 96.000000 96.000000"
 preserveAspectRatio="xMidYMid meet">
<metadata>
Created by potrace 1.14, written by Peter Selinger 2001-2017
</metadata>
<g transform="translate(0.000000,96.000000) scale(0.100000,-0.100000)"
fill="#000000" stroke="none">
<path d="M405 907 c-139 -57 -195 -184 -144 -326 31 -87 163 -292 200 -312 28
-14 46 -1 97 70 117 162 157 249 157 341 -1 97 -46 172 -130 216 -40 20 -142
27 -180 11z m114 -152 c19 -6 40 -39 45 -70 7 -42 -37 -89 -84 -89 -47 0 -91
47 -84 89 10 67 55 92 123 70z"/>
<path d="M235 326 c-177 -56 -205 -156 -63 -225 35 -17 95 -37 133 -45 94 -19
298 -15 385 8 203 55 248 160 100 236 -86 44 -150 44 -150 0 0 -23 7 -28 84
-60 33 -14 61 -31 64 -38 6 -18 -90 -57 -174 -70 -68 -11 -230 -10 -284 2 -14
3 -38 9 -55 12 -46 10 -107 44 -102 57 2 7 30 23 63 37 77 32 84 37 84 60 0
16 -28 42 -42 39 -2 0 -21 -6 -43 -13z"/>
</g>
</svg>
